# xmcd
#
# Track frame offsets: 
#        163
#        18808
#        32987
#        47957
#        65728
#        91847
#        98665
#        109627
#        126298
#        139403
#        145127
#        162087
#        168699
#        175991
#
# Disc length: 2731 seconds
#
# Revision: 15
# Processed by: cddbd v1.5.2PL0 Copyright (c) Steve Scherf et al.
# Submitted via: ExactAudioCopyFreeDBPlugin 1.0
#
DISCID=c30aa90e
DTITLE=Mike Oldfield - 2008 Music Of The Spheres 
DYEAR=2008
DGENRE=Progressive Rock
TTITLE0=01 Harbinger
TTITLE1=02 Animus
TTITLE2=03 Silhouette
TTITLE3=04 Shabda
TTITLE4=05 The Tempest
TTITLE5=06 Harbinger (Reprise)
TTITLE6=07 On My Heart (feat. Hayley Westenra)
TTITLE7=08 Aurora
TTITLE8=09 Prophecy
TTITLE9=10 On My Heart (Reprise) (feat. Hayley Westenra)
TTITLE10=11 Harmonia Mundi
TTITLE11=12 The Other Side
TTITLE12=13 Empyrean
TTITLE13=14 Musica Universalis
EXTD=Featuring performances from:\nLang Lang - Piano\nHayley Westenra 
EXTD=Lead vocals (7 and 10) YEAR: 2008
EXTT0=
EXTT1=
EXTT2=
EXTT3=
EXTT4=
EXTT5=
EXTT6=
EXTT7=
EXTT8=
EXTT9=
EXTT10=
EXTT11=
EXTT12=
EXTT13=
PLAYORDER=
